<svg width="45" height="30" viewBox="0 0 45 30" fill="none" xmlns="http://www.w3.org/2000/svg">
<path d="M1.56529 14.7463L1.43135 14.982L1.55579 15.2228L1.88713 15.8641C1.88717 15.8642 1.88722 15.8643 1.88726 15.8644C6.25494 24.3289 13.9457 29.5 22.5 29.5C31.0519 29.5 38.7571 24.3981 43.1134 15.8631C43.1136 15.8628 43.1137 15.8625 43.1139 15.8621L43.4442 15.2228L43.5641 14.9909L43.4422 14.76L43.1129 14.1359C43.1125 14.1352 43.1121 14.1344 43.1117 14.1337C38.7439 5.67026 31.0536 0.5 22.5 0.5C13.9494 0.5 6.24758 5.66676 1.91684 14.1276L1.56529 14.7463ZM22.5 25.7601C15.6099 25.7601 9.24368 21.7793 5.47686 14.9933C9.24368 8.20739 15.6099 4.22649 22.5 4.22649C29.3861 4.22649 35.6793 8.21653 39.5081 14.9935C35.6794 21.7825 29.3742 25.7601 22.5 25.7601Z" fill="#0066B3" stroke="#0066B3"/>
<path d="M22.866 5.36491C21.0332 5.37894 19.2476 5.96215 17.7348 7.03781C16.2223 8.11325 15.0512 9.6319 14.3658 11.3994C13.6804 13.1667 13.5103 15.1061 13.8761 16.9736C14.2419 18.8411 15.128 20.5562 16.4259 21.9011C17.724 23.2462 19.3761 24.1607 21.175 24.5251C22.974 24.8896 24.8354 24.6868 26.523 23.9434C28.2103 23.2001 29.6459 21.9511 30.6511 20.3577C31.6562 18.7645 32.1871 16.8971 32.1792 14.9912C32.1739 13.7223 31.9299 12.4665 31.4606 11.2955C30.9912 10.1244 30.3054 9.06047 29.4414 8.1652C28.5774 7.26987 27.552 6.56078 26.4234 6.07976C25.2948 5.59873 24.0858 5.35558 22.866 5.36491ZM22.8743 21.0289C21.7575 21.0166 20.6669 20.6589 19.7394 19.9975C18.8113 19.3357 18.087 18.3986 17.661 17.3014C17.235 16.204 17.1274 14.9979 17.3527 13.8355C17.578 12.6732 18.1253 11.6096 18.9226 10.7772C19.7196 9.9451 20.7304 9.38125 21.8268 9.15258C22.923 8.92396 24.0595 9.03977 25.0946 9.48658C26.13 9.93352 27.0201 10.6929 27.6505 11.6731C28.2809 12.6533 28.6223 13.8094 28.6295 14.9958C28.6325 15.7942 28.4844 16.5848 28.1942 17.3215C27.9039 18.0584 27.4776 18.726 26.941 19.2862C26.4044 19.8464 25.7685 20.288 25.0706 20.5867C24.3729 20.8852 23.6264 21.0353 22.8743 21.0289Z" fill="#0066B3" stroke="#0066B3"/>
</svg>
