<svg width="18" height="13" viewBox="0 0 18 13" fill="none" xmlns="http://www.w3.org/2000/svg">
<path d="M18 11.375V1.625C18 0.725833 17.291 0 16.4127 0H1.5873C0.708995 0 0 0.725833 0 1.625V11.375C0 12.2742 0.708995 13 1.5873 13H16.4127C17.291 13 18 12.2742 18 11.375ZM16.6138 1.50583C16.963 1.86333 16.7725 2.23167 16.582 2.41583L12.2857 6.44583L16.4127 10.8442C16.5397 10.9958 16.6243 11.2342 16.4762 11.3967C16.3386 11.57 16.0212 11.5592 15.8836 11.4508L11.2593 7.41L8.99471 9.5225L6.74074 7.41L2.1164 11.4508C1.97884 11.5592 1.66138 11.57 1.52381 11.3967C1.37566 11.2342 1.46032 10.9958 1.5873 10.8442L5.71429 6.44583L1.41799 2.41583C1.22751 2.23167 1.03704 1.86333 1.38624 1.50583C1.73545 1.14833 2.09524 1.32167 2.39153 1.58167L8.99471 7.04167L15.6085 1.58167C15.9048 1.32167 16.2646 1.14833 16.6138 1.50583Z" fill="#0066B3"/>
</svg>
